<?xml version="1.0" encoding="UTF-8" standalone="no"?>
<svg
   fill="none"
   viewBox="0 0 128 128"
   version="1.1"
   id="svg1"
   sodipodi:docname="favicon.svg"
   inkscape:version="1.4.3 (0d15f75042, 2025-12-25)"
   xmlns:inkscape="http://www.inkscape.org/namespaces/inkscape"
   xmlns:sodipodi="http://sodipodi.sourceforge.net/DTD/sodipodi-0.dtd"
   xmlns="http://www.w3.org/2000/svg"
   xmlns:svg="http://www.w3.org/2000/svg"><defs
   id="defs1" />
<sodipodi:namedview
   id="namedview1"
   pagecolor="#ffffff"
   bordercolor="#000000"
   borderopacity="0.25"
   inkscape:showpageshadow="2"
   inkscape:pageopacity="0.0"
   inkscape:pagecheckerboard="0"
   inkscape:deskcolor="#d1d1d1"
   inkscape:zoom="6.4140625"
   inkscape:cx="64"
   inkscape:cy="64"
   inkscape:window-width="1920"
   inkscape:window-height="1008"
   inkscape:window-x="0"
   inkscape:window-y="0"
   inkscape:window-maximized="1"
   inkscape:current-layer="svg1" />
<style
   id="style1">
        path { fill: #000; }
        @media (prefers-color-scheme: dark) {
            path { fill: #FFF; }
        }
    </style>
<g
   id="hair"
   transform="translate(5,24)" />
<g
   id="skin"
   transform="translate(5,24)" />
<g
   id="skin-shadow"
   transform="translate(5,24)" />



<g
   id="faces"
   transform="translate(-0.75639464,3.4311815)">
	
		<radialGradient
   id="clown-face_1_"
   cx="63.52"
   cy="2521.55"
   r="56.949902"
   gradientTransform="translate(0,-2458.6699)"
   gradientUnits="userSpaceOnUse">
		<stop
   offset="0.5"
   style="stop-color:#FFFFFF"
   id="stop1" />

		<stop
   offset="0.76"
   style="stop-color:#FDFDFD"
   id="stop2" />

		<stop
   offset="0.87"
   style="stop-color:#F6F6F6"
   id="stop3" />

		<stop
   offset="0.96"
   style="stop-color:#E9E9E9"
   id="stop4" />

		<stop
   offset="1"
   style="stop-color:#E0E0E0"
   id="stop5" />

	</radialGradient>

	<path
   id="clown-face"
   style="fill:url(#clown-face_1_)"
   d="m 63.52,7 c -30.09,0 -58,20 -58,55.83 0,36.09 27.87,55.93 58,55.93 30.13,0 58,-19.35 58,-55.93 C 121.39,26.59 93.52,7 63.52,7 Z" />

	
		<radialGradient
   id="SVGID_1_"
   cx="99.4683"
   cy="-62.3046"
   r="20.969999"
   gradientTransform="matrix(1,0,0,-0.73,0,26.24)"
   gradientUnits="userSpaceOnUse">
		<stop
   offset="0"
   style="stop-color:#ED7770"
   id="stop6" />

		<stop
   offset="0.08"
   style="stop-color:#ED7770;stop-opacity:0.97"
   id="stop7" />

		<stop
   offset="0.21"
   style="stop-color:#ED7770;stop-opacity:0.88"
   id="stop8" />

		<stop
   offset="0.35"
   style="stop-color:#ED7770;stop-opacity:0.74"
   id="stop9" />

		<stop
   offset="0.52"
   style="stop-color:#ED7770;stop-opacity:0.55"
   id="stop10" />

		<stop
   offset="0.71"
   style="stop-color:#ED7770;stop-opacity:0.29"
   id="stop11" />

		<stop
   offset="0.9"
   style="stop-color:#ED7770;stop-opacity:0"
   id="stop12" />

	</radialGradient>

	<ellipse
   style="fill:url(#SVGID_1_)"
   cx="99.470001"
   cy="71.769997"
   rx="19.27"
   ry="14.77"
   id="ellipse12" />

</g>

<g
   id="facial_expressions"
   transform="translate(-0.75639464,3.4311815)">
	<g
   id="clown-face-2">
		<g
   id="blush">
			
				<radialGradient
   id="SVGID_2_"
   cx="29.219999"
   cy="-62.3046"
   r="20.969999"
   gradientTransform="matrix(1,0,0,-0.73,0,26.24)"
   gradientUnits="userSpaceOnUse">
				<stop
   offset="0"
   style="stop-color:#ED7770"
   id="stop13" />

				<stop
   offset="0.08"
   style="stop-color:#ED7770;stop-opacity:0.97"
   id="stop14" />

				<stop
   offset="0.21"
   style="stop-color:#ED7770;stop-opacity:0.88"
   id="stop15" />

				<stop
   offset="0.35"
   style="stop-color:#ED7770;stop-opacity:0.74"
   id="stop16" />

				<stop
   offset="0.52"
   style="stop-color:#ED7770;stop-opacity:0.55"
   id="stop17" />

				<stop
   offset="0.71"
   style="stop-color:#ED7770;stop-opacity:0.29"
   id="stop18" />

				<stop
   offset="0.9"
   style="stop-color:#ED7770;stop-opacity:0"
   id="stop19" />

			</radialGradient>

			<ellipse
   style="fill:url(#SVGID_2_)"
   cx="29.219999"
   cy="71.769997"
   rx="19.27"
   ry="14.77"
   id="ellipse19" />

		</g>

		<g
   id="prop">
			
				<radialGradient
   id="nose_1_"
   cx="65.940002"
   cy="68.870003"
   r="20"
   gradientTransform="matrix(1,0,0,-1,0,130)"
   gradientUnits="userSpaceOnUse">
				<stop
   offset="0"
   style="stop-color:#FF4900"
   id="stop20" />

				<stop
   offset="0.38"
   style="stop-color:#FE4700"
   id="stop21" />

				<stop
   offset="0.59"
   style="stop-color:#FA3F00"
   id="stop22" />

				<stop
   offset="0.76"
   style="stop-color:#F43100"
   id="stop23" />

				<stop
   offset="0.9"
   style="stop-color:#EB1E00"
   id="stop24" />

				<stop
   offset="1"
   style="stop-color:#E30C00"
   id="stop25" />

			</radialGradient>

			<circle
   id="nose"
   style="fill:url(#nose_1_)"
   cx="64"
   cy="66.940002"
   r="14.62" />

			<g
   id="hair-2"
   style="fill:#66ff00">
				
					<linearGradient
   id="SVGID_3_"
   gradientUnits="userSpaceOnUse"
   x1="25.134001"
   y1="126.28"
   x2="25.134001"
   y2="86.18"
   gradientTransform="matrix(1,0,0,-1,0,130)">
					<stop
   offset="0"
   style="stop-color:#FF4900"
   id="stop26" />

					<stop
   offset="1"
   style="stop-color:#E30C00"
   id="stop27" />

				</linearGradient>

				<path
   style="fill:#66ff00"
   d="m 38.63,5.24 c -3.71,-0.02 -6.98,2.43 -8,6 -6.4,-4.76 -15.44,-3.43 -20.2,2.96 -1.86,2.5 -2.86,5.54 -2.86,8.67 0,1.96 0.39,3.89 1.16,5.69 -4.9,2.54 -6.82,8.58 -4.28,13.48 2.54,4.9 8.58,6.82 13.48,4.28 3.31,-1.72 5.4,-5.14 5.4,-8.87 0,-0.06 0,-0.12 0,-0.18 7.45,-0.67 13.16,-6.92 13.16,-14.4 0,-0.45 0,-0.9 -0.07,-1.34 0.72,0.21 1.47,0.31 2.22,0.31 4.58,0 8.3,-3.72 8.3,-8.3 0,-4.58 -3.72,-8.3 -8.3,-8.3 z"
   id="path27" />

			</g>

		</g>

	</g>

	<path
   style="fill:#adbcc3"
   d="m 111.49,29.67 c 5.33,8.6 8.11,18.84 8.11,30.23 0,16.9 -6.1,31.2 -17.6,41.4 -10.6,9.3 -25,14.5 -40.4,14.5 -18.06,0 -37,-7.35 -48.18,-22.94 10.76,17.66 31,25.94 50.18,25.94 15.4,0 29.8,-5.2 40.4,-14.5 11.5,-10.2 17.6,-24.5 17.6,-41.4 0,-12.74 -3.47,-24.06 -10.11,-33.23 z"
   id="path28" />

	
		<linearGradient
   id="SVGID_4_"
   gradientUnits="userSpaceOnUse"
   x1="103.3409"
   y1="126.28"
   x2="103.3409"
   y2="86.18"
   gradientTransform="matrix(1,0,0,-1,0,130)">
		<stop
   offset="0"
   style="stop-color:#FF4900"
   id="stop28" />

		<stop
   offset="1"
   style="stop-color:#E30C00"
   id="stop29" />

	</linearGradient>

	<path
   style="fill:#55d400"
   d="m 119.71,28.56 c 3.14,-7.34 -0.27,-15.84 -7.62,-18.98 -1.8,-0.77 -3.73,-1.16 -5.68,-1.16 -3.11,0 -6.13,1 -8.62,2.87 -1.25,-4.41 -5.83,-6.96 -10.24,-5.72 -4.41,1.24 -6.96,5.83 -5.72,10.24 1.01,3.56 4.25,6.02 7.95,6.03 0.75,0 1.49,-0.11 2.21,-0.31 -0.03,0.45 -0.03,0.89 0,1.34 0,7.48 5.71,13.73 13.16,14.4 0,0.06 0,0.12 0,0.18 0.01,5.52 4.49,10 10.01,9.99 5.52,-0.01 10,-4.49 9.99,-10.01 0,-3.73 -2.09,-7.15 -5.4,-8.87 z"
   id="path29" />

	<path
   style="fill:#422b0d"
   d="m 44,40.94 v 0 c -4.19,0 -8,3.54 -8,9.42 0,5.88 3.81,9.41 8,9.41 v 0 c 4.2,0 8,-3.54 8,-9.41 0,-5.87 -3.76,-9.42 -8,-9.42 z"
   id="path30" />

	<g
   id="peepers">
		<path
   style="fill:#896024"
   d="m 43.65,44.87 v 0 c -1.42,-0.68 -3.13,-0.08 -3.82,1.34 -0.53,1.11 -0.29,2.44 0.6,3.3 v 0 c 1.42,0.68 3.13,0.08 3.82,-1.34 0.53,-1.11 0.29,-2.44 -0.6,-3.3 z"
   id="path31" />

	</g>

	<path
   style="fill:#422b0d"
   d="m 85.37,40.94 v 0 c -4.19,0 -8,3.54 -8,9.42 0,5.88 3.81,9.41 8,9.41 v 0 c 4.19,0 8,-3.54 8,-9.41 0,-5.87 -3.81,-9.42 -8,-9.42 z"
   id="path32" />

	<g
   id="peepers-2">
		<path
   style="fill:#896024"
   d="m 85,44.87 v 0 c -1.42,-0.68 -3.13,-0.08 -3.82,1.34 -0.53,1.11 -0.29,2.44 0.6,3.3 v 0 c 1.42,0.68 3.13,0.08 3.82,-1.34 0.53,-1.11 0.29,-2.44 -0.6,-3.3 z"
   id="path33" />

	</g>

	
		<linearGradient
   id="mouth_1_"
   gradientUnits="userSpaceOnUse"
   x1="36.7421"
   y1="37.060101"
   x2="91.757896"
   y2="37.060101"
   gradientTransform="matrix(1,0,0,-1,0,130)">
		<stop
   offset="0"
   style="stop-color:#FF4900"
   id="stop33" />

		<stop
   offset="1"
   style="stop-color:#E30C00"
   id="stop34" />

	</linearGradient>

	<path
   id="mouth"
   style="fill:#422b0d;stroke:url(#mouth_1_);stroke-width:4;stroke-miterlimit:10"
   d="M 64.25,101.44 C 51.51,101.44 42.43,94.83 39.7,90.67 38.67,89.34 38.45,87.54 39.14,86 c 0.53,-0.97 1.56,-1.57 2.67,-1.56 0.41,0 0.82,0.07 1.21,0.2 6.9,2.08 14.07,3.11 21.28,3.07 7.17,0.04 14.31,-1 21.18,-3.07 0.39,-0.13 0.8,-0.19 1.21,-0.2 1.11,-0.01 2.14,0.59 2.67,1.56 0.69,1.54 0.47,3.34 -0.56,4.67 -2.73,4.16 -11.8,10.77 -24.55,10.77 z" />

</g>

</svg>
